<svg width="91" height="92" viewBox="0 0 91 92" fill="none" xmlns="http://www.w3.org/2000/svg">
<g clip-path="url(#clip0_195_530)">
<path fill-rule="evenodd" clip-rule="evenodd" d="M45.499 3.28571L48.1401 1.37102C47.5297 0.510416 46.5464 0 45.499 0C44.4515 0 43.4682 0.510416 42.8577 1.37102L45.499 3.28571ZM45.499 3.28571C48.1401 1.37102 48.1398 1.37062 48.1401 1.37102L48.1443 1.37693L48.1539 1.39061L48.1894 1.44084L48.3224 1.63019C48.4376 1.79487 48.6049 2.03516 48.817 2.34268C49.2408 2.95758 49.8439 3.84218 50.5664 4.9295C52.0096 7.10122 53.9389 10.0957 55.8733 13.3736C57.8012 16.6408 59.7683 20.2469 61.2634 23.6319C62.703 26.8911 63.9156 30.3976 63.9156 33.3058C63.9156 38.3725 62.0066 43.2577 58.5684 46.8802C55.126 50.5073 50.4277 52.5714 45.499 52.5714C40.5702 52.5714 35.8719 50.5073 32.4294 46.8802C28.9914 43.2577 27.0823 38.3725 27.0823 33.3058C27.0823 30.3976 28.295 26.8911 29.7345 23.6319C31.2296 20.2469 33.1967 16.6408 35.1246 13.3736C37.0589 10.0957 38.9883 7.10122 40.4314 4.9295C41.154 3.84218 41.757 2.95758 42.181 2.34268C42.3929 2.03516 42.5603 1.79487 42.6756 1.63019L42.8085 1.44084L42.8439 1.39061L42.8536 1.37693L42.8577 1.37102C42.8581 1.37062 42.8577 1.37102 45.499 3.28571ZM66.9377 47.0731C66.9377 38.8723 73.5131 32.2242 81.6251 32.2242C86.8029 32.2242 91 36.4677 91 41.7022V72.7805C91 77.3556 89.2021 81.7427 86.0028 84.9778L80.2477 90.7961C78.661 92.4002 76.089 92.4002 74.5023 90.7961C72.9157 89.192 72.9157 86.5917 74.5023 84.9876L80.2574 79.1693C81.9331 77.4752 82.875 75.1765 82.875 72.7805V41.7022C82.875 41.0043 82.3154 40.4385 81.6251 40.4385C78.0006 40.4385 75.0627 43.409 75.0627 47.0731V60.4305C75.1998 60.5556 75.3344 60.685 75.4663 60.8186C79.6933 65.0922 79.6933 72.0209 75.4663 76.2943L70.6849 81.1282C69.0989 82.7323 66.5262 82.7323 64.9399 81.1282C63.3534 79.5241 63.3534 76.9238 64.9399 75.3197L69.721 70.4865C70.7753 69.4206 70.7753 67.6929 69.721 66.6271C69.5377 66.4411 69.3342 66.288 69.1178 66.1671L69.0534 66.1322C68.0375 65.6003 66.7563 65.7649 65.9042 66.6271L56.6148 76.0183C56.1811 76.4566 55.9375 77.0513 55.9375 77.671V87.8915C55.9375 90.16 54.1187 91.9987 51.875 91.9987C49.6313 91.9987 47.8125 90.16 47.8125 87.8915V77.671C47.8125 74.8729 48.9122 72.1885 50.8696 70.2098L60.1586 60.8186C62.0495 58.907 64.4658 57.8505 66.9377 57.649V47.0731ZM24.0625 47.0731C24.0625 38.8723 17.4867 32.2242 9.37502 32.2242C4.19733 32.2242 0 36.4677 0 41.7022V72.7805C0 77.3556 1.79765 81.7427 4.99749 84.9778L10.7524 90.7961C12.3389 92.4002 14.9111 92.4002 16.4977 90.7961C18.0841 89.192 18.0841 86.5917 16.4977 84.9876L10.7427 79.1693C9.06666 77.4752 8.125 75.1765 8.125 72.7805V41.7022C8.125 41.0043 8.68465 40.4385 9.37502 40.4385C12.9993 40.4385 15.9375 43.409 15.9375 47.0731V60.4313C15.8004 60.5564 15.6657 60.6858 15.5336 60.8194C11.3065 65.093 11.3065 72.0215 15.5336 76.2956L20.3149 81.1289C21.9014 82.733 24.4736 82.733 26.0601 81.1289C27.6466 79.5255 27.6466 76.9245 26.0601 75.3211L21.2789 70.4871C20.2248 69.4212 20.2248 67.6936 21.2789 66.6277C22.333 65.5621 24.042 65.5621 25.0961 66.6277L34.3852 76.0189C34.8189 76.4573 35.0625 77.052 35.0625 77.6723V87.8929C35.0625 90.1607 36.8813 92 39.125 92C41.3687 92 43.1875 90.1607 43.1875 87.8929V77.6723C43.1875 74.8736 42.0878 72.1898 40.1304 70.2105L30.8414 60.8194C28.9505 58.9078 26.5342 57.8512 24.0625 57.6498V47.0731Z" fill="#F5D34B" fill-opacity="0.7"/>
</g>
<defs>
<clipPath id="clip0_195_530">
<rect width="91" height="92" fill="white"/>
</clipPath>
</defs>
</svg>
