<svg width="106" height="103" viewBox="0 0 106 103" fill="none" xmlns="http://www.w3.org/2000/svg">
<path d="M69.5616 51.4976C65.305 51.4976 61.1893 49.6509 57.968 46.2993C54.8355 43.0303 52.9227 38.6711 52.5852 34.0281C52.2251 29.0753 53.7797 24.5208 56.9617 21.2015C60.1439 17.8822 64.5928 16.0918 69.5616 16.0918C74.495 16.0918 78.9565 17.9144 82.1281 21.2256C85.3308 24.5691 86.8899 29.1155 86.5295 34.026C86.1839 38.6751 84.273 43.0325 81.1469 46.2974C77.9338 49.6509 73.8201 51.4976 69.5616 51.4976Z" fill="#A8F7C6"/>
<path d="M96.8513 86.9039H42.2684C41.3908 86.9086 40.524 86.7174 39.7343 86.3453C38.9448 85.9732 38.2534 85.4299 37.7137 84.7574C37.1413 84.0285 36.746 83.1832 36.5574 82.2847C36.3688 81.3863 36.3918 80.458 36.6247 79.5694C38.368 72.7678 42.6866 67.127 49.1126 63.2585C54.8163 59.8267 62.0769 57.9355 69.5589 57.9355C77.1878 57.9355 84.2578 59.7462 89.9946 63.1761C96.4352 67.0244 100.76 72.6974 102.495 79.5814C102.725 80.4707 102.746 81.3989 102.555 82.297C102.364 83.1948 101.967 84.0396 101.394 84.7675C100.855 85.4368 100.165 85.9773 99.3776 86.3477C98.5901 86.718 97.726 86.9084 96.8513 86.9039Z" fill="#A8F7C6"/>
<path d="M30.4294 52.3023C23.1446 52.3023 16.7397 45.7206 16.1456 37.6321C15.8516 33.4883 17.1807 29.6563 19.8719 26.8461C22.534 24.064 26.2893 22.5312 30.4294 22.5312C34.5699 22.5312 38.2962 24.0722 40.9727 26.8701C43.6847 29.7024 45.0095 33.5265 44.699 37.636C44.105 45.7226 37.7019 52.3023 30.4294 52.3023Z" fill="#A8F7C6"/>
<path d="M44.0247 58.6306C40.3829 56.9006 35.6564 56.0356 30.4332 56.0356C24.334 56.0356 18.411 57.5806 13.7528 60.3848C8.47152 63.5695 4.91891 68.2064 3.48422 73.8049C3.27425 74.6102 3.2544 75.4509 3.42612 76.2648C3.59784 77.0788 3.95672 77.8442 4.47588 78.5042C4.96851 79.1186 5.59961 79.6151 6.32065 79.9557C7.04169 80.296 7.83347 80.4711 8.63507 80.4677H31.6154C32.0032 80.4677 32.3786 80.3353 32.6762 80.0937C32.9742 79.852 33.1753 79.5166 33.2447 79.1458C33.2674 79.0192 33.2963 78.8924 33.3295 78.7677C35.0851 71.9159 39.1988 66.1262 45.277 61.9058C45.5007 61.7489 45.6805 61.5408 45.8002 61.2996C45.9198 61.0584 45.9759 60.7921 45.9629 60.5245C45.9499 60.2569 45.8686 59.9969 45.726 59.7677C45.5835 59.5385 45.3843 59.3475 45.1467 59.2121C44.8216 59.0269 44.4489 58.8319 44.0247 58.6306Z" fill="#A8F7C6"/>
</svg>
