<svg width="93" height="83" viewBox="0 0 93 83" fill="none" xmlns="http://www.w3.org/2000/svg">
<g clip-path="url(#clip0_195_515)">
<path fill-rule="evenodd" clip-rule="evenodd" d="M32.1315 5.92871C28.777 5.92871 25.9926 7.43967 24.0952 9.6218C22.2097 11.7903 21.1481 14.665 21.1481 17.6074C21.1481 20.5499 22.2097 23.4246 24.0952 25.5931C25.9926 27.7752 28.777 29.2862 32.1315 29.2862C35.4861 29.2862 38.2705 27.7752 40.1678 25.5931C42.0534 23.4246 43.1149 20.5499 43.1149 17.6074C43.1149 14.665 42.0534 11.7903 40.1678 9.6218C38.2705 7.43967 35.4861 5.92871 32.1315 5.92871ZM60.8761 5.92871C57.5216 5.92871 54.7372 7.43967 52.8398 9.6218C50.9543 11.7903 49.8928 14.665 49.8928 17.6074C49.8928 20.5499 50.9543 23.4246 52.8398 25.5931C54.7372 27.7752 57.5216 29.2862 60.8761 29.2862C64.2307 29.2862 67.0151 27.7752 68.9123 25.5931C70.7982 23.4246 71.8598 20.5499 71.8598 17.6074C71.8598 14.665 70.7982 11.7903 68.9123 9.6218C67.0151 7.43967 64.2307 5.92871 60.8761 5.92871ZM11.3727 28.0537C4.5088 28.0537 0 33.8564 0 39.7325C0 45.6085 4.5088 51.4112 11.3727 51.4112C18.2366 51.4112 22.7453 45.6085 22.7453 39.7325C22.7453 33.8564 18.2366 28.0537 11.3727 28.0537ZM81.6288 28.0537C74.7647 28.0537 70.2562 33.8564 70.2562 39.7325C70.2562 45.6085 74.7647 51.4112 81.6288 51.4112C88.4928 51.4112 93.0013 45.6085 93.0013 39.7325C93.0013 33.8564 88.4928 28.0537 81.6288 28.0537ZM33.8341 48.6722C30.7807 52.4605 29.2701 57.21 29.2701 60.7793C29.2701 63.3671 30.883 65.461 34.1525 67.0985C37.5 68.7751 42.1024 69.6614 46.5003 69.6614C50.8982 69.6614 55.5005 68.7751 58.848 67.0985C62.1176 65.461 63.7304 63.3671 63.7304 60.7793C63.7304 57.21 62.2199 52.4605 59.1664 48.6722C56.1807 44.968 51.9795 42.4569 46.5003 42.4569C41.021 42.4569 36.8198 44.968 33.8341 48.6722ZM27.0934 44.3447C31.235 39.2063 37.7249 35.0462 46.5003 35.0462C55.2757 35.0462 61.7655 39.2063 65.9071 44.3447C69.9812 49.399 72.0338 55.6634 72.0338 60.7793C72.0338 66.8768 67.8741 71.0766 62.9112 73.5613C58.0267 76.0074 51.9381 77.0722 46.5003 77.0722C41.0624 77.0722 34.9739 76.0074 30.0893 73.5613C25.1268 71.0766 20.9665 66.8768 20.9665 60.7793C20.9665 55.6634 23.0196 49.399 27.0934 44.3447Z" fill="#A8F7C6"/>
</g>
<defs>
<clipPath id="clip0_195_515">
<rect width="93" height="83" fill="white"/>
</clipPath>
</defs>
</svg>
